<?xml version="1.0" encoding="UTF-8"?>
<svg width="102px" height="30px" viewBox="0 0 102 30" version="1.1" xmlns="http://www.w3.org/2000/svg" xmlns:xlink="http://www.w3.org/1999/xlink">
    <title>logo-negative</title>
    <g id="Symbols" stroke="none" stroke-width="1" fill="none" fill-rule="evenodd">
        <g id="header" transform="translate(-200, -16)" fill="#FFFFFF" fill-rule="nonzero">
            <path d="M229.978235,16.7761086 L229.978235,30.16679 C229.992396,30.4224426 230,30.6798497 230,30.9387606 C230,38.8569729 223.284181,45.2761086 215,45.2761086 C206.715819,45.2761086 200,38.8569729 200,30.9387606 C200,30.6798497 200.007604,30.4224426 200.021765,30.16679 L200.021765,16.7761086 L229.978235,16.7761086 Z M212.466662,22.7761086 L212.425357,22.7761086 L206,27.9943797 L206,28.0202015 L212.452978,28.0202015 L212.452978,39.4516405 L218.91964,39.4516405 L218.91964,28.0202015 L223.1875,28.0202015 L223.1875,22.7761086 L218.878335,22.7761086 L212.466662,27.9832409 L212.466662,22.7761086 Z M242.059077,38.9815091 C242.457846,38.9815091 242.814154,38.9668331 243.128,38.937481 C243.441846,38.908129 243.705846,38.875108 243.92,38.8384179 L243.92,36.0536437 C243.794462,36.0683197 243.670769,36.0811612 243.548923,36.0921682 C243.427077,36.1031752 243.277538,36.1086787 243.100308,36.1086787 C242.612923,36.1086787 242.251077,36.0004431 242.014769,35.7839718 C241.778462,35.5675006 241.660308,35.2061037 241.660308,34.6997811 L241.660308,29.6035341 L243.92,29.6035341 L243.92,26.7307037 L241.660308,26.7307037 L241.660308,22.7761086 L237.705846,22.7761086 L237.705846,26.7307037 L236,26.7307037 L236,29.6035341 L237.705846,29.6035341 L237.705846,35.3491948 C237.705846,36.6553604 238.054769,37.5872875 238.752615,38.1449761 C239.450462,38.7026648 240.552615,38.9815091 242.059077,38.9815091 Z M248.992917,38.9815091 L248.992917,32.551441 C248.992917,31.9759444 249.095442,31.4926748 249.30049,31.1016322 C249.505539,30.7105897 249.805788,30.4136186 250.201239,30.2107192 C250.59669,30.0078197 251.080018,29.90637 251.651225,29.90637 C251.89289,29.90637 252.132723,29.9248154 252.370726,29.9617062 C252.608729,29.998597 252.822931,30.0539332 253.013333,30.1277149 L253.013333,26.7743403 C252.852224,26.7226932 252.676468,26.6821133 252.486066,26.6526006 C252.295663,26.623088 252.1016,26.6083317 251.903874,26.6083317 C251.171558,26.6083317 250.565566,26.8093866 250.085899,27.2114964 C249.606232,27.6136062 249.282182,28.1835692 249.113749,28.9213854 L248.992917,28.9213854 L248.992917,26.8407438 L245.093333,26.8407438 L245.093333,38.9815091 L248.992917,38.9815091 Z M259.170632,39.2761086 C260.145169,39.2761086 260.97574,39.1525655 261.662345,38.9054793 C262.34895,38.6583931 262.91743,38.3357059 263.367784,37.9374177 C263.818138,37.5391295 264.168823,37.1168703 264.41984,36.67064 C264.670857,36.2244098 264.840663,35.7984627 264.929257,35.3927988 L264.96248,35.2600361 L261.407637,35.2600361 L261.385488,35.3153539 C261.326425,35.462868 261.210145,35.6288214 261.036648,35.8132141 C260.863151,35.9976068 260.628746,36.1561845 260.333432,36.2889472 C260.038117,36.4217099 259.676358,36.4880913 259.248152,36.4880913 C258.753501,36.4880913 258.328987,36.3792996 257.97461,36.1617162 C257.620233,35.9441329 257.347068,35.6288214 257.155114,35.2157818 C256.990581,34.8617479 256.896563,34.4453967 256.873058,33.9667284 L256.86988,33.8336833 L265.04,33.8328367 L265.04,32.69329 C265.04,31.4615469 264.79452,30.3902255 264.30356,29.4793256 C263.812601,28.5684258 263.118613,27.8622019 262.221596,27.3606538 C261.324579,26.8591057 260.263294,26.6083317 259.037741,26.6083317 C257.812187,26.6083317 256.749057,26.8646375 255.848349,27.3772491 C254.947641,27.8898608 254.249961,28.6182118 253.75531,29.5623023 C253.260659,30.5063929 253.013333,31.6311882 253.013333,32.9366883 L253.013333,32.9477519 C253.013333,34.253252 253.260659,35.3798913 253.75531,36.3276697 C254.249961,37.275448 254.956869,38.0037991 255.876034,38.5127229 C256.7952,39.0216467 257.893399,39.2761086 259.170632,39.2761086 Z M260.933333,31.6165225 L256.533333,31.6165225 L256.542086,31.5561471 C256.58899,31.2739354 256.667165,31.0178814 256.776609,30.787985 C256.968136,30.3856663 257.231486,30.0794768 257.566659,29.8694166 C257.901832,29.6593564 258.294095,29.5543263 258.743448,29.5543263 C259.1928,29.5543263 259.583222,29.6575762 259.914711,29.8640761 C260.246201,30.070576 260.505868,30.3732051 260.693712,30.7719634 C260.801052,30.9998254 260.877723,31.2567513 260.923725,31.5427413 L260.933333,31.6165225 Z M273.366413,38.9815091 C274.384997,38.9815091 275.258599,38.737325 275.987221,38.2489568 C276.715842,37.7605887 277.273461,37.055168 277.660077,36.1326948 C278.046692,35.2102216 278.24,34.101445 278.24,32.806365 L278.24,32.7955123 C278.24,31.4859621 278.048551,30.3717592 277.665653,29.4529036 C277.282755,28.5340479 276.726995,27.8322448 275.998373,27.3474941 C275.269751,26.8627435 274.392431,26.6203682 273.366413,26.6203682 C272.503963,26.6203682 271.754895,26.8211418 271.11921,27.2226889 C270.483525,27.6242361 270.013267,28.1831463 269.708435,28.8994196 L269.585759,28.8994196 L269.585759,22.7785387 L265.626667,22.7785387 L265.626667,38.7536039 L269.585759,38.7536039 L269.585759,36.7892787 L269.708435,36.7892787 C270.005832,37.4766116 270.470514,38.0138166 271.102482,38.4008936 C271.734449,38.7879706 272.489093,38.9815091 273.366413,38.9815091 Z M272.085627,36.0355145 C271.612918,36.0355145 271.200234,35.9123708 270.847578,35.6660836 C270.494921,35.4197963 270.22105,35.0650692 270.025963,34.6019021 C269.830877,34.138735 269.733333,33.5910216 269.733333,32.9587618 L269.733333,32.9367062 C269.733333,32.2970945 269.830877,31.7457052 270.025963,31.2825381 C270.22105,30.819371 270.496797,30.4646439 270.853205,30.2183566 C271.209614,29.9720694 271.620421,29.8489258 272.085627,29.8489258 C272.558337,29.8489258 272.971021,29.9720694 273.323677,30.2183566 C273.676334,30.4646439 273.948329,30.8175331 274.139664,31.2770242 C274.330999,31.7365154 274.426667,32.2897427 274.426667,32.9367062 L274.426667,32.947734 C274.426667,33.5873457 274.330999,34.1368971 274.139664,34.5963882 C273.948329,35.0558794 273.678209,35.4106065 273.329305,35.6605697 C272.9804,35.9105329 272.565841,36.0355145 272.085627,36.0355145 Z M283.226667,38.9815091 L283.226667,22.7785387 L279.12,22.7785387 L279.12,38.9815091 L283.226667,38.9815091 Z M288.8,38.9815091 L288.8,22.7785387 L284.693333,22.7785387 L284.693333,38.9815091 L288.8,38.9815091 Z M296.130632,39.2761086 C297.105169,39.2761086 297.93574,39.1525655 298.622345,38.9054793 C299.30895,38.6583931 299.87743,38.3357059 300.327784,37.9374177 C300.778138,37.5391295 301.128823,37.1168703 301.37984,36.67064 C301.630857,36.2244098 301.800663,35.7984627 301.889257,35.3927988 L301.92248,35.2600361 L298.367637,35.2600361 L298.345488,35.3153539 C298.286425,35.462868 298.170145,35.6288214 297.996648,35.8132141 C297.823151,35.9976068 297.588746,36.1561845 297.293432,36.2889472 C296.998117,36.4217099 296.636358,36.4880913 296.208152,36.4880913 C295.713501,36.4880913 295.288987,36.3792996 294.93461,36.1617162 C294.580233,35.9441329 294.307068,35.6288214 294.115114,35.2157818 C293.950581,34.8617479 293.856563,34.4453967 293.833058,33.9667284 L293.829829,33.8336833 L302,33.8328367 L302,32.69329 C302,31.4615469 301.75452,30.3902255 301.26356,29.4793256 C300.772601,28.5684258 300.078613,27.8622019 299.181596,27.3606538 C298.284579,26.8591057 297.223294,26.6083317 295.997741,26.6083317 C294.772187,26.6083317 293.709057,26.8646375 292.808349,27.3772491 C291.907641,27.8898608 291.209961,28.6182118 290.71531,29.5623023 C290.220659,30.5063929 289.973333,31.6311882 289.973333,32.9366883 L289.973333,32.9477519 C289.973333,34.253252 290.220659,35.3798913 290.71531,36.3276697 C291.209961,37.275448 291.916869,38.0037991 292.836034,38.5127229 C293.7552,39.0216467 294.853399,39.2761086 296.130632,39.2761086 Z M297.893333,31.6165225 L293.493333,31.6165225 L293.502137,31.5561471 C293.549042,31.2739354 293.627216,31.0178814 293.73666,30.787985 C293.928188,30.3856663 294.191538,30.0794768 294.526711,29.8694166 C294.861884,29.6593564 295.254146,29.5543263 295.703499,29.5543263 C296.152852,29.5543263 296.543273,29.6575762 296.874763,29.8640761 C297.206252,30.070576 297.465919,30.3732051 297.653763,30.7719634 C297.761103,30.9998254 297.837774,31.2567513 297.883777,31.5427413 L297.893333,31.6165225 Z" id="logo-negative"></path>
        </g>
    </g>
</svg>