<?xml version="1.0" encoding="UTF-8"?>
<svg width="30px" height="28px" viewBox="0 0 30 28" version="1.1" xmlns="http://www.w3.org/2000/svg" xmlns:xlink="http://www.w3.org/1999/xlink">
    <title>Combined Shape</title>
    <g id="Symbols" stroke="none" stroke-width="1" fill="none" fill-rule="evenodd">
        <g id="logo" fill="#FFFFFF" fill-rule="nonzero">
            <path d="M29.9782354,0 L29.9782354,13.1557572 C29.9923955,13.4069247 30,13.6598158 30,13.9141845 C30,21.6934807 23.2841809,28 15,28 C6.7158191,28 0,21.6934807 0,13.9141845 C0,13.6598158 0.00760449627,13.4069247 0.0217645928,13.1557572 L0.0217645928,0 L29.9782354,0 Z M12.9102293,5.80851064 L12.8696488,5.80851064 L6.55701754,10.9352332 L6.55701754,10.9606019 L12.8967854,10.9606019 L12.8967854,22.1914894 L19.2499972,22.1914894 L19.2499972,10.9606019 L23.4429825,10.9606019 L23.4429825,5.80851064 L19.2094167,5.80851064 L12.9102293,10.9242898 L12.9102293,5.80851064 Z" id="Combined-Shape"></path>
        </g>
    </g>
</svg>