<svg width="92" height="23" viewBox="0 0 92 23" xmlns="http://www.w3.org/2000/svg">
    <g fill="none" fill-rule="evenodd">
        <path d="M88.45 4.092a1.8 1.8 0 0 0 1.317.56c.523 0 .97-.186 1.342-.56.372-.373.558-.814.558-1.322 0-.508-.186-.953-.558-1.334a1.807 1.807 0 0 0-1.342-.572c-.506 0-.945.19-1.317.572-.373.381-.558.826-.558 1.334 0 .508.185.95.558 1.322zM48.39 8.966a.07.07 0 0 1-.07.07h-2.613v4.957c0 .413.103.714.309.905.206.19.506.298.902.322.362.021.804.02 1.325-.005h.013l.024-.002.036-.001a.07.07 0 0 1 .075.07v2.65a.07.07 0 0 1-.063.07l-.048.006c-2.047.218-3.494.016-4.342-.608-.863-.636-1.294-1.771-1.294-3.407V9.037h-1.995a.07.07 0 0 1-.07-.071V6.153a.07.07 0 0 1 .07-.07h1.995V4.114c0-.056.033-.107.084-.13l2.88-1.272a.07.07 0 0 1 .1.065v3.304h2.612a.07.07 0 0 1 .07.07v2.814zM53.945 8.131c.285-.762.756-1.334 1.413-1.715a4.253 4.253 0 0 1 2.125-.571.07.07 0 0 1 .071.07v3.233c0 .068-.058.12-.126.114-.883-.08-1.676.114-2.379.585-.736.492-1.104 1.31-1.104 2.454v5.623a.07.07 0 0 1-.07.071h-2.923a.07.07 0 0 1-.07-.07V6.152a.07.07 0 0 1 .07-.07h2.922a.07.07 0 0 1 .071.07V8.13z" fill="#FFF" fill-rule="nonzero"/>
        <path d="M68.429 6.082a.07.07 0 0 0-.07.07v1.336c-.919-1.16-2.209-1.74-3.871-1.74-1.583 0-2.94.608-4.073 1.823-1.131 1.215-1.697 2.704-1.697 4.467 0 1.764.566 3.253 1.697 4.468 1.132 1.215 2.49 1.823 4.073 1.823 1.662 0 2.952-.58 3.87-1.74v1.335c0 .04.032.07.071.07h2.922a.07.07 0 0 0 .07-.07V6.153a.07.07 0 0 0-.07-.071h-2.922zm-5.722 8.387c.617.62 1.4.93 2.35.93.95 0 1.738-.315 2.363-.942s.938-1.434.938-2.418c0-.985-.313-1.791-.938-2.419-.625-.627-1.413-.94-2.363-.94s-1.733.313-2.35.94c-.618.628-.926 1.434-.926 2.419 0 .984.308 1.795.926 2.43zM84.726 7.571c-1.132-1.215-2.497-1.823-4.096-1.823-1.662 0-2.945.58-3.847 1.74V6.153a.07.07 0 0 0-.07-.071H73.79a.07.07 0 0 0-.07.07V22.69c0 .039.031.07.07.07h2.922a.07.07 0 0 0 .071-.07v-6.1c.902 1.159 2.185 1.739 3.847 1.739 1.599 0 2.964-.608 4.096-1.823 1.132-1.215 1.698-2.704 1.698-4.468 0-1.763-.566-3.252-1.698-4.467zm-7.017 6.898c.617.62 1.4.93 2.35.93.95 0 1.738-.315 2.363-.942.626-.627.938-1.434.938-2.418 0-.985-.312-1.791-.938-2.419-.625-.627-1.413-.94-2.362-.94-.95 0-1.734.313-2.351.94-.618.628-.926 1.434-.926 2.419 0 .984.308 1.795.926 2.43z" fill="#FFF"/>
        <path d="M88.319 17.995a.07.07 0 0 1-.071-.07V6.153a.07.07 0 0 1 .07-.07h2.922a.07.07 0 0 1 .071.07v11.772a.07.07 0 0 1-.07.07h-2.922zM33.64 10.24c-.42-.199-.629-.457-.629-.775 0-.302.13-.54.392-.715.261-.174.59-.262.985-.262.76 0 1.333.297 1.72.89a.1.1 0 0 0 .125.039l2.585-1.147a.07.07 0 0 0 .032-.1 4.658 4.658 0 0 0-1.825-1.766c-.792-.437-1.67-.656-2.637-.656-1.282 0-2.354.338-3.217 1.013-.863.675-1.294 1.6-1.294 2.776 0 .778.21 1.425.629 1.941.42.517.93.894 1.532 1.132.601.239 1.203.437 1.804.596a8.971 8.971 0 0 1 1.532.536c.42.199.63.457.63.774 0 .683-.547 1.025-1.64 1.025-1.04 0-1.76-.386-2.16-1.157a.14.14 0 0 0-.183-.066l-2.577 1.146a.07.07 0 0 0-.035.095l.03.06c.9 1.806 2.542 2.71 4.926 2.71 1.361 0 2.497-.33 3.407-.99.91-.658 1.366-1.6 1.366-2.823 0-.81-.21-1.485-.63-2.025-.42-.54-.93-.925-1.531-1.155a15.792 15.792 0 0 0-1.805-.572 8.37 8.37 0 0 1-1.532-.524z" fill="#FFF" fill-rule="nonzero"/>
        <path d="M.865 8.49c0-3.595 0-5.392 1.117-6.51C3.098.865 4.896.865 8.492.865h6.746c3.595 0 5.393 0 6.51 1.117s1.117 2.914 1.117 6.51v6.746c0 3.596 0 5.393-1.117 6.51s-2.915 1.117-6.51 1.117H8.491c-3.595 0-5.393 0-6.51-1.117C.866 20.63.866 18.833.866 15.237V8.491z" fill="#4945FF" fill-rule="nonzero"/>
        <path d="M16.045 7.537H8.638v3.777h3.777v3.777h3.776V7.684a.147.147 0 0 0-.146-.147z" fill="#FFF"/>
        <path fill="#FFF" fill-rule="nonzero" d="M12.268 11.314h1v1h-1z"/>
        <path d="M8.638 11.314h3.63c.081 0 .147.066.147.147v3.63h-3.63a.147.147 0 0 1-.147-.147v-3.63z" fill="#9593FF" fill-rule="nonzero"/>
        <path d="M12.415 15.09h3.776l-3.651 3.652a.073.073 0 0 1-.125-.052v-3.6zM8.638 11.314h-3.6a.073.073 0 0 1-.052-.125l3.652-3.652v3.777z" fill="#9593FF" fill-rule="nonzero"/>
    </g>
</svg>
