<svg width="124" height="26" viewBox="0 0 124 26" xmlns="http://www.w3.org/2000/svg">
    <path d="M7.631.653a1.213 1.213 0 0 1 1.181 0l10.242 5.715a.66.66 0 0 0 .469.066 2.6 2.6 0 0 1 .555-.077c1.07 0 1.947.692 1.947 1.557 0 .864-.876 1.557-1.947 1.557-.156 0-.353-.03-.591-.088a.66.66 0 0 0-.478.064l-14.65 8.16a.247.247 0 0 0-.127.178l-.003.038a.28.28 0 0 0 .145.245l9.442 5.269c.2.11.442.11.642 0l3.499-1.952a.278.278 0 0 0 0-.487l-4.243-2.368a.818.818 0 0 1 0-1.432l4.315-2.407a.193.193 0 0 0 .098-.139l.002-.03c0-.865.877-1.558 1.949-1.558 1.07 0 1.947.693 1.947 1.557 0 .531-.33.997-.835 1.278l-.051.028a2.307 2.307 0 0 1-1.061.25c-.163 0-.366-.03-.612-.093a.66.66 0 0 0-.483.063L16.25 17.57a.278.278 0 0 0 0 .486l4.242 2.367a.818.818 0 0 1 0 1.433l-5.766 3.218a1.213 1.213 0 0 1-1.18 0l-10.23-5.709a.66.66 0 0 0-.471-.065 2.568 2.568 0 0 1-.564.08c-1.073 0-1.949-.693-1.949-1.556 0-.865.877-1.557 1.948-1.557.154 0 .348.028.581.085a.663.663 0 0 0 .476-.065l14.673-8.173a.23.23 0 0 0 .116-.165l.002-.036a.296.296 0 0 0-.152-.259L8.542 2.391a.66.66 0 0 0-.64 0L4.402 4.342a.278.278 0 0 0 0 .487l4.242 2.368a.818.818 0 0 1 0 1.432l-4.312 2.407a.2.2 0 0 0-.102.143l-.003.034c0 .864-.876 1.556-1.947 1.556-.502 0-.962-.152-1.309-.403l-.046-.034c-.364-.282-.593-.678-.593-1.12 0-.864.877-1.556 1.948-1.556.16 0 .362.03.607.092a.66.66 0 0 0 .483-.063l2.738-1.528a.278.278 0 0 0 0-.487L1.867 5.303a.818.818 0 0 1 0-1.433L7.63.653zm22.02 3.893c.277 0 .515.09.716.268.209.186.313.436.313.748v2.581h2.473c.344 0 .627.258.67.59l.004.085c0 .34-.253.626-.59.67l-.085.004H30.68v6.579l.001.242c.005.551.03.995.072 1.332.056.394.11.783.255.988.154.213.328.37.522.427.163.054.378.086.647.096l.168.002h1.167a.787.787 0 0 1 .153 1.555l-.09.014-.052.003v.002h-1.616l-.214-.005c-.983-.038-1.763-.348-2.337-.93-.58-.579-.886-1.535-.92-2.868l-.004-.255V9.492h-1.574a.675.675 0 0 1-.669-.59l-.004-.085c0-.343.256-.626.59-.668l.084-.006h1.62l.178-2.58c0-.328.097-.58.29-.76.194-.17.429-.257.704-.257zM76.108 2.75c.298 0 .554.1.77.298.196.175.305.406.33.694l.005.128v9.83L82.863 8.6a.894.894 0 0 1 .586-.233c.265 0 .498.102.697.306.207.205.31.433.31.686a.803.803 0 0 1-.219.544l-.079.082-4.518 3.982 4.941 5.122a.89.89 0 0 1 .274.637c0 .262-.108.495-.323.698a.997.997 0 0 1-.722.307.954.954 0 0 1-.668-.263l-.08-.08-5.85-6.127V19.6c0 .348-.116.626-.347.834a1.159 1.159 0 0 1-.795.298 1.14 1.14 0 0 1-.782-.286c-.189-.175-.295-.412-.319-.713l-.004-.133V3.867c0-.348.11-.621.335-.82.232-.2.5-.299.807-.299v.001zM71.61 8.144c.298 0 .555.103.77.31.196.18.306.42.33.72l.006.13V19.56c0 .36-.116.649-.348.864-.224.206-.488.309-.795.309-.306 0-.567-.098-.782-.296-.189-.18-.295-.427-.319-.74l-.004-.137V9.305c0-.361.111-.645.335-.851.232-.207.5-.31.807-.31zM87.609 2.75c.144 0 .265.054.361.164a.571.571 0 0 1 .14.317l.005.098v16.826l-.006.097a.574.574 0 0 1-.139.318.462.462 0 0 1-.361.164.472.472 0 0 1-.374-.151.564.564 0 0 1-.126-.322l-.006-.106V3.327l.006-.106a.564.564 0 0 1 .126-.322c.09-.1.214-.15.374-.15zm-19.017 0-.002.002.054.003a.787.787 0 0 1 .024 1.56l-.09.008h-1.166c-.348 0-.619.033-.814.1-.194.056-.368.212-.522.426-.146.205-.199.595-.255.988-.043.337-.067.78-.072 1.331v.977h2.022a.675.675 0 0 1 0 1.349h-2.024V19.6c0 .304-.088.555-.265.752l-.082.081a1.16 1.16 0 0 1-.795.299c-.306 0-.567-.096-.782-.286-.188-.175-.294-.412-.318-.713L63.5 19.6V9.493H61.7a.675.675 0 0 1 0-1.349H63.5V6.807c0-1.468.309-2.509.925-3.123.574-.582 1.354-.892 2.337-.931l.214-.004h1.616zm26.817 5.395c2.714 0 4.103 1.423 4.168 4.269l.002.21v7.459l-.005.105a.549.549 0 0 1-.132.32.498.498 0 0 1-.387.15.518.518 0 0 1-.4-.162.56.56 0 0 1-.144-.316l-.005-.097V18.33l-.105.205a4.024 4.024 0 0 1-1.482 1.572c-.69.417-1.477.626-2.36.626a4.61 4.61 0 0 1-2.098-.476 3.938 3.938 0 0 1-1.51-1.29 3.269 3.269 0 0 1-.588-1.814c-.016-.917.21-1.626.675-2.127.466-.5 1.249-.86 2.348-1.076 1.03-.203 2.448-.311 4.253-.324h.867v-1.052l-.003-.233c-.03-1.066-.266-1.852-.71-2.357-.474-.542-1.22-.814-2.235-.814-.799 0-1.511.105-2.135.313-.625.209-1.12.446-1.486.714-.067.049-.204.146-.412.287-.209.142-.379.212-.512.212a.43.43 0 0 1-.312-.137.46.46 0 0 1-.137-.338c0-.317.29-.65.874-1a7.345 7.345 0 0 1 1.91-.802 8 8 0 0 1 2.06-.275zm-54.17 0c.28 0 .498.1.657.302.165.202.248.437.248.705 0 .252-.074.47-.223.655-.148.176-.363.264-.643.264-1.182 0-1.988.293-2.645.88-.633.576-.971 1.341-.984 2.296v6.313c0 .36-.116.649-.348.864-.224.206-.488.309-.795.309-.306 0-.567-.098-.782-.296-.207-.199-.315-.477-.323-.835V9.305c0-.361.111-.645.335-.851.232-.207.501-.31.807-.31.298 0 .555.103.77.31.215.198.326.468.335.808v1.626c.22-.78.657-1.431 1.314-1.951.664-.529 1.349-.793 2.277-.793zm78.442 0c.618 0 1.212.084 1.78.25a5.204 5.204 0 0 1 1.505.701c.317.234.547.438.69.613a.849.849 0 0 1 .213.538.452.452 0 0 1-.125.313.393.393 0 0 1-.302.137c-.133 0-.35-.125-.651-.374a7.014 7.014 0 0 0-1.368-.827c-.476-.216-1.074-.325-1.793-.325-.936 0-1.692.221-2.269.663-.577.442-.865 1.023-.865 1.74 0 .433.091.788.275 1.063.184.276.498.513.94.714.444.2 1.075.392 1.894.575 1.154.284 2.04.572 2.658.864.62.292 1.059.642 1.318 1.05.259.41.388.931.388 1.565 0 1.001-.414 1.806-1.241 2.415-.827.61-1.927.914-3.298.914a6.9 6.9 0 0 1-1.956-.289 6.734 6.734 0 0 1-1.756-.788c-.334-.216-.56-.396-.678-.538a.745.745 0 0 1-.175-.488c0-.116.042-.22.125-.313a.393.393 0 0 1 .302-.137c.083 0 .196.046.338.137l.288.188c.486.35.991.638 1.518.864.527.225 1.191.337 1.994.337 1.087 0 1.923-.2 2.508-.6.585-.401.878-.968.878-1.702 0-.434-.105-.792-.314-1.076-.209-.283-.552-.53-1.028-.739-.477-.208-1.158-.412-2.044-.612-1.472-.334-2.525-.76-3.16-1.277-.635-.518-.954-1.202-.954-2.052 0-1.035.406-1.877 1.217-2.528.811-.65 1.86-.976 3.148-.976zM102.356 2.75c.169 0 .3.05.391.15.078.09.125.203.134.321l.005.106v7.4l.096-.206a4.151 4.151 0 0 1 1.556-1.726c.73-.452 1.608-.678 2.634-.678 1.075 0 2.024.26 2.849.778.823.518 1.462 1.246 1.916 2.182.453.936.68 2.032.68 3.286 0 1.27-.227 2.387-.68 3.349-.454.96-1.093 1.705-1.916 2.231-.824.527-1.774.79-2.85.79-1.025 0-1.902-.225-2.634-.677-.67-.413-1.188-.996-1.555-1.746l-.096-.21v1.981l-.004.093c-.027.322-.202.484-.525.484-.169 0-.298-.05-.391-.15a.549.549 0 0 1-.133-.321l-.006-.106V3.325l.004-.092c.027-.323.202-.485.525-.485v.001zM55.314 8.143c1.172 0 2.26.302 3.072.85.643.435 1.166 1.105 1.377 1.765.122.378.14.518.141 1.069 0 .342-.008.573-.028.68-.189 1.082-.641 1.831-1.427 2.365-.631.43-1.425.68-2.463.78a14.01 14.01 0 0 1-2.096-.01c-.526-.047-1.17-.13-1.445-.186a18.03 18.03 0 0 0-.4-.073l-.197-.034a7.874 7.874 0 0 0-.428-.067c-.004.003-.04.242-.084.533a5.088 5.088 0 0 0-.08.949v.209c.003.201.014.272.048.406.144.559.461.932 1.035 1.22.564.285 1.156.407 2.05.426.397.01.6.003.847-.023.6-.065.874-.136 1.672-.435.199-.074.402-.142.45-.15a.826.826 0 0 1 .417.078c.207.107.38.392.379.622 0 .269-.09.432-.352.644-.626.506-1.425.816-2.38.925-.34.038-1.118.044-1.493.01-1.057-.093-1.79-.277-2.462-.616-.523-.265-.922-.594-1.22-1.005a18.222 18.222 0 0 0-.14-.19.95.95 0 0 0-.108.13c-.25.33-.633.683-1.008.931-.541.357-1.318.63-2.104.739-.234.032-1.012.058-1.211.041-1.378-.12-2.43-.543-3.196-1.282-.779-.752-1.113-1.733-.982-2.879.153-1.319.77-2.25 1.85-2.794.833-.419 1.665-.578 3.019-.579.961 0 1.767.08 2.996.298l.493.085.078.01.014.002c.026 0 .047-.098.101-.491.102-.711.12-.957.092-1.241-.032-.332-.074-.49-.197-.747-.319-.663-1.076-1.07-2.292-1.23-.498-.046-1-.05-1.499-.01-.582.067-.908.152-1.635.429-.425.162-.426.162-.595.152a.68.68 0 0 1-.619-.417.54.54 0 0 1-.061-.301c0-.22.056-.338.253-.525.442-.42 1.185-.777 1.935-.931.48-.098.717-.12 1.35-.118a8.068 8.068 0 0 1 1.655.148c.968.183 1.703.506 2.257.99.165.144.413.428.519.592a.317.317 0 0 0 .075.093.827.827 0 0 0 .119-.135c.839-1.087 2.252-1.702 3.908-1.702zm43.254 6.406h-.476l-.345.002c-1.586.008-2.807.079-3.665.21-.92.142-1.563.383-1.93.723-.368.34-.552.843-.552 1.507 0 .765.284 1.392.852 1.882.568.49 1.287.735 2.156.735.752 0 1.429-.178 2.03-.536.6-.355 1.09-.867 1.416-1.482a4.34 4.34 0 0 0 .508-1.88l.006-.263v-.897zm8.517-5.506c-1.356 0-2.403.46-3.14 1.38-.737.92-1.105 2.217-1.105 3.89 0 1.689.368 2.994 1.105 3.914.737.92 1.793 1.38 3.166 1.38 1.34 0 2.387-.468 3.14-1.404.754-.938 1.13-2.251 1.13-3.941 0-1.656-.376-2.94-1.13-3.851-.753-.912-1.809-1.368-3.166-1.368zM46.546 14.84c-.837.048-1.178.123-1.68.368a1.558 1.558 0 0 0-.576.443 2.142 2.142 0 0 0-.408.861c-.062.252-.068.912-.011 1.124.096.358.21.56.469.829.352.367.817.612 1.395.734.295.063.285.062.78.055.359-.006.493-.016.64-.049a3.021 3.021 0 0 0 1.58-.907c.367-.408.668-1.02.834-1.692.093-.38.249-1.438.215-1.46a.835.835 0 0 0-.183-.03 13.71 13.71 0 0 1-.361-.042l-.189-.024c-1.28-.17-2.065-.236-2.505-.21zm7.806-5.07c-.456.084-.84.24-1.18.478-.628.436-1.062 1.095-1.303 1.98-.095.348-.12.48-.205 1.08l-.077.552.104.012c.14.015.358.042.595.071l.358.045.486.063c.26.035.58.072.709.082.375.03 1.049.028 1.417-.006.519-.047.838-.13 1.229-.32.326-.157.515-.318.695-.59.263-.4.366-.78.363-1.342-.001-.402-.034-.568-.17-.856-.3-.644-1.006-1.105-1.931-1.262a4.761 4.761 0 0 0-1.09.012zm17.253-7.022c.4 0 .722.11.968.332.246.213.37.498.37.854 0 .349-.124.633-.37.854-.246.213-.572.32-.98.32-.407 0-.734-.107-.98-.32a1.096 1.096 0 0 1-.368-.854c0-.349.123-.634.368-.854.254-.221.584-.332.992-.332z" fill="#FFF" fill-rule="nonzero"/>
</svg>
