<?xml version="1.0" encoding="UTF-8"?>
<svg width="61px" height="61px" viewBox="0 0 61 61" version="1.1" xmlns="http://www.w3.org/2000/svg" xmlns:xlink="http://www.w3.org/1999/xlink">
    <title>1</title>
    <g id="Page-1" stroke="none" stroke-width="1" fill="none" fill-rule="evenodd">
        <g id="1" transform="translate(0.4831, 0.6575)">
            <rect id="Rectangle" x="0" y="0" width="60" height="60"></rect>
            <path d="M48.5508821,29.485288 C50.1127003,29.485288 51.3787439,30.7513316 51.3787439,32.3131497 L51.3787439,49.1800139 C51.3787439,50.741832 50.1127003,52.0078756 48.5508821,52.0078756 L32.33215,52.0078756 C30.7703319,52.0078756 29.5036453,50.741832 29.5036453,49.1800139 L29.5036453,32.3131497 C29.5036453,30.7513316 30.7703319,29.485288 32.33215,29.485288 L48.5508821,29.485288 Z M27.668493,7.99212443 C29.2303111,7.99212443 30.4963547,9.25816802 30.4963547,10.8199861 L30.4963547,27.6862073 C30.4963547,29.2486684 29.2303111,30.514712 27.668493,30.514712 L11.4497608,30.514712 C9.88794273,30.514712 8.62125615,29.2486684 8.62125615,27.6862073 L8.62125615,10.8199861 C8.62125615,9.25816802 9.88794273,7.99212443 11.4497608,7.99212443 L27.668493,7.99212443 Z" fill="#3A72EB"></path>
        </g>
    </g>
</svg>