<?xml version="1.0" encoding="UTF-8"?>
<svg width="61px" height="61px" viewBox="0 0 61 61" version="1.1" xmlns="http://www.w3.org/2000/svg" xmlns:xlink="http://www.w3.org/1999/xlink">
    <title>2</title>
    <g id="Page-1" stroke="none" stroke-width="1" fill="none" fill-rule="evenodd">
        <g id="2" transform="translate(0.1723, 0.0198)">
            <rect id="Rectangle" x="0" y="0" width="60" height="60"></rect>
            <path d="M15.520947,36.493987 L15.520947,51.745022 C15.520947,52.2838461 15.0811432,52.7120761 14.5538929,52.7120761 L7.85138484,52.7120761 C7.3125608,52.7120761 6.88433072,52.2722723 6.88433072,51.745022 L6.88433072,43.0756133 C8.30147651,42.9765932 9.62024513,42.3831151 10.653527,41.361407 L15.520947,36.493987 Z M18.8612703,36.3839075 L23.4650651,40.9877023 C24.5420702,42.0647074 25.9707898,42.6691162 27.4978866,42.7019086 L27.4978866,51.7448934 C27.4978866,52.2837175 27.0580827,52.7119475 26.5308324,52.7119475 L19.8283244,52.7119475 C19.2901433,52.7119475 18.8612703,52.2727867 18.8612703,51.7448934 L18.8612703,36.3839075 Z M39.4748261,33.2966 L39.4748261,51.7452149 C39.4748261,52.283396 39.0350222,52.712269 38.507772,52.712269 L31.8052639,52.712269 C31.2670829,52.712269 30.8382098,52.2724652 30.8382098,51.7452149 L30.8382098,41.7461068 C31.1789935,41.5262049 31.4972726,41.2735105 31.7943331,40.977093 L39.4748261,33.2966 Z M50.803505,21.9566045 L50.9462484,22.0993479 C51.0671302,22.2092989 51.2317351,22.3739038 51.4516371,22.5610133 L51.4516371,51.7449577 C51.4516371,52.2837818 51.0124762,52.7120118 50.4845829,52.7120118 L43.7820749,52.7120118 C43.2438938,52.7120118 42.8150207,52.272851 42.8150207,51.7449577 L42.8150207,29.9450888 L50.803505,21.9566045 Z M54.8693761,7.28773096 C55.4847157,7.28773096 55.9675998,7.46326671 56.2865219,7.80405041 C56.6273056,8.15576491 56.7700489,8.65022276 56.7372565,9.28742398 L56.5945132,12.3313297 C56.495493,14.3638151 56.3964728,16.3860127 56.3083835,18.4075673 C56.2865219,18.8801636 56.1984325,19.4845724 55.7258362,19.9565257 C55.5940237,20.0889813 55.4403495,20.1982892 55.2648137,20.2973094 C55.0011886,20.4400528 54.7484943,20.5062805 54.495157,20.5062805 C53.8913911,20.5062805 53.4953105,20.1108429 53.2098237,19.8247131 L50.8037622,17.4295824 L29.5305006,38.7022011 C29.0141811,39.2075897 28.3441875,39.4937195 27.6188969,39.4937195 C26.8936063,39.4937195 26.2120389,39.2075897 25.7066503,38.7022011 L17.2352819,30.2308327 L8.36783289,39.0982818 C7.86244423,39.6036704 7.19180763,39.8891571 6.46651704,39.8891571 C5.74186944,39.8891571 5.06030205,39.6036704 4.55491339,39.0982818 L4.04952473,38.5922501 C2.99438124,37.5377496 2.99438124,35.8344741 4.04952473,34.7799736 L15.3339661,23.5058201 C15.8393547,23.0004314 16.5099913,22.7149447 17.2352819,22.7149447 C17.9599295,22.7149447 18.6414969,23.0004314 19.1468856,23.5058201 L27.6188969,31.9778314 L46.4745233,13.1112743 C45.9247684,12.5730932 45.3756566,12.0233384 44.8368326,11.4742265 L44.056888,10.6827082 C43.7488967,10.3753599 43.1007647,9.72722785 43.5624301,8.72673835 C43.6505195,8.529341 43.7598275,8.36473604 43.9032138,8.22134969 C44.3533055,7.77125802 44.9249219,7.74939642 45.3422212,7.72689184 C48.4632855,7.58414848 51.572776,7.43047432 54.6931973,7.28773096 L54.8693761,7.28773096 Z" fill="#3A72EB"></path>
        </g>
    </g>
</svg>