<?xml version="1.0" encoding="UTF-8"?>
<svg width="61px" height="61px" viewBox="0 0 61 61" version="1.1" xmlns="http://www.w3.org/2000/svg" xmlns:xlink="http://www.w3.org/1999/xlink">
    <title>3</title>
    <g id="Page-1" stroke="none" stroke-width="1" fill="none" fill-rule="evenodd">
        <g id="3" transform="translate(0.405, 0.0198)">
            <rect id="Rectangle" x="0" y="0" width="60" height="60"></rect>
            <path d="M14.7750056,44.3869554 L10.3827538,48.7804932 C10.0445421,49.1212769 10.0445421,49.6710317 10.3827538,50.0092435 C10.7241805,50.3474552 11.2732924,50.3474552 11.6115041,50.0092435 L16.0050419,45.6157057 C16.3432536,45.274279 16.3432536,44.7251672 16.0050419,44.3869554 C15.6668301,44.0487437 15.1164323,44.0487437 14.7750056,44.3869554 L14.7750056,44.3869554 Z M9.33789815,29.5217133 L3.12727598,29.5217133 C2.64824984,29.5217133 2.25859905,29.9120071 2.25859905,30.3910332 C2.25859905,30.8700594 2.64824984,31.2603531 3.12727598,31.2603531 L9.33918412,31.2603531 C9.81821027,31.2603531 10.2085041,30.8700594 10.2085041,30.3910332 C10.2072181,29.9120071 9.81692429,29.5217133 9.33789815,29.5217133 Z M14.7750056,16.396397 C15.1164323,16.7346087 15.6655441,16.7346087 16.0037559,16.396397 C16.3419676,16.0549703 16.3419676,15.5052155 16.0037559,15.1676467 L11.6115041,10.7741089 C11.2732924,10.4358972 10.7241805,10.4358972 10.3827538,10.7741089 C10.0445421,11.1123207 10.0445421,11.6614325 10.3827538,12.0028592 L14.7750056,16.396397 Z M45.2243506,44.3869554 C44.8861388,44.0487437 44.337027,44.0487437 43.9956003,44.3869554 C43.6573886,44.7251672 43.6573886,45.274279 43.9956003,45.6157057 L48.3891381,50.0092435 C48.7305648,50.3474552 49.2796766,50.3474552 49.6178884,50.0092435 C49.959315,49.6710317 49.959315,49.1212769 49.6178884,48.7804932 L45.2243506,44.3869554 Z M56.8752952,29.5217133 L50.6614581,29.5217133 C50.1824319,29.5217133 49.7953531,29.9120071 49.7953531,30.3910332 C49.7953531,30.8700594 50.1824319,31.2603531 50.6614581,31.2603531 L56.8752952,31.2603531 C57.3543213,31.2603531 57.741401,30.8700594 57.741401,30.3910332 C57.7420431,29.9120071 57.3556073,29.5217133 56.8752952,29.5217133 Z M45.2243506,16.396397 L49.6178884,12.0028592 C49.959315,11.6614325 49.959315,11.1123207 49.6178884,10.7741089 C49.2796766,10.4358972 48.7305648,10.4358972 48.3891381,10.7741089 L43.9956003,15.1676467 C43.6573886,15.5052155 43.6573886,16.0549703 43.9956003,16.396397 C44.335741,16.7346087 44.8861388,16.7346087 45.2243506,16.396397 L45.2243506,16.396397 Z M29.9996781,10.5998592 C30.4787042,10.5998592 30.868998,10.2095654 30.868998,9.73053924 L30.868998,3.51541616 C30.868998,3.03639002 30.4787042,2.64995416 29.9996781,2.64995416 C29.520652,2.64995416 29.1342161,3.03639002 29.1342161,3.51541616 L29.1342161,9.72925326 C29.1342161,10.2095654 29.520652,10.5998592 29.9996781,10.5998592 L29.9996781,10.5998592 Z M40.0997354,46.0915169 C40.0997354,45.0903844 39.2824975,44.2731465 38.281365,44.2731465 L21.7179912,44.2731465 C20.7200737,44.2731465 19.8996209,45.0903844 19.8996209,46.0915169 C19.8996209,47.0926494 20.7200737,47.9098873 21.7179912,47.9098873 C20.7200737,47.9098873 19.8996209,48.7271252 19.8996209,49.7282577 C19.8996209,50.7300331 20.7200737,51.546628 21.7179912,51.546628 L38.281365,51.546628 C39.2824975,51.546628 40.0997354,50.7300331 40.0997354,49.7282577 C40.0997354,48.7271252 39.2824975,47.9098873 38.281365,47.9098873 C39.2824975,47.9098873 40.0997354,47.0926494 40.0997354,46.0915169 L40.0997354,46.0915169 Z M37.5631473,30.8617005 C37.8942861,30.8617005 38.1958476,30.72603 38.4138205,30.5080571 C38.6311505,30.293299 38.7636061,29.9923806 38.7636061,29.6605987 C38.7636061,29.3256019 38.6311505,29.0278984 38.4138205,28.8099255 C38.1958476,28.5919525 37.8942861,28.456925 37.5631473,28.456925 C37.2313654,28.456925 36.929804,28.5919525 36.711831,28.8067105 L36.711831,28.8099255 C36.494501,29.0278984 36.3588305,29.3288169 36.3588305,29.6605987 C36.3588305,29.9923806 36.494501,30.2900841 36.711831,30.5080571 L36.711831,30.511272 C36.929804,30.72603 37.2313654,30.8617005 37.5631473,30.8617005 L37.5631473,30.8617005 Z M21.5893936,28.8099255 C21.3714206,29.0278984 21.2357502,29.3256019 21.2357502,29.6605987 C21.2357502,29.9923806 21.3714206,30.293299 21.5893936,30.5080571 C21.8073666,30.72603 22.1050701,30.8617005 22.4400669,30.8617005 C22.7718488,30.8617005 23.0727672,30.72603 23.2875252,30.5080571 C23.5054982,30.293299 23.6405257,29.9923806 23.6405257,29.6605987 C23.6405257,29.3256019 23.5054982,29.0278984 23.2875252,28.8099255 C23.0727672,28.5919525 22.7718488,28.456925 22.4400669,28.456925 C22.1050701,28.456925 21.8073666,28.5913095 21.5893936,28.8099255 L21.5893936,28.8099255 Z M30.0466162,57.3502387 C33.03201,57.3502387 35.6470427,55.7093331 37.035254,53.2859109 L22.9589583,53.2859109 C24.3568144,55.7311947 27.0110694,57.3502387 30.0466162,57.3502387 L30.0466162,57.3502387 Z M29.9996781,35.9946746 L34.9641893,31.0301634 C34.7462163,30.621866 34.6227626,30.1550566 34.6227626,29.6605987 C34.6227626,29.1635689 34.7449304,28.6961166 34.9641893,28.2878191 L31.3724577,24.6960875 C30.9641603,24.9140605 30.4973509,25.0375142 29.9996781,25.0375142 C29.5058632,25.0375142 29.0384109,24.9153465 28.6301134,24.6960875 L25.0383818,28.2878191 C25.2531399,28.6961166 25.3765936,29.1635689 25.3765936,29.6605987 C25.3765936,30.1550566 25.2544258,30.621866 25.0383818,31.0301634 L29.9996781,35.9946746 Z M29.9996781,14.1324358 C21.4254316,14.1324358 14.4747302,21.0844233 14.4747302,29.6605987 C14.4747302,34.4405723 16.6377422,38.7190152 20.0352914,41.5674526 C20.4133684,41.8838027 20.7355054,42.2303733 20.9997735,42.6084503 C21.2325352,42.5627982 21.4730128,42.5351497 21.7179912,42.5351497 L29.1342161,42.5351497 L29.1342161,37.5802833 L23.8109175,32.2595567 C23.4019771,32.4736717 22.9351677,32.5977684 22.4407099,32.5977684 C21.6273299,32.5977684 20.8923945,32.2692015 20.3612863,31.7368073 C19.8301781,31.2050562 19.5009682,30.4714067 19.5009682,29.6605987 C19.5009682,28.8465758 19.8295352,28.1122834 20.3612863,27.5811752 C20.8923945,27.050067 21.6273299,26.7208571 22.4407099,26.7208571 C22.9351677,26.7208571 23.4019771,26.8430248 23.8109175,27.0584258 L27.4020061,23.4705522 C27.1840332,23.0590398 27.0605795,22.5915874 27.0605795,22.0977726 C27.0605795,21.2869646 27.3923613,20.5520291 27.9247555,20.017706 C28.4552207,19.4872408 29.1901561,19.1573879 30.0009641,19.1573879 C30.8117721,19.1573879 31.5492795,19.4859549 32.0803876,20.017706 C32.6114958,20.5520291 32.9407057,21.2869646 32.9407057,22.0977726 C32.9407057,22.5915874 32.818538,23.0590398 32.602494,23.4705522 L36.1910106,27.0584258 C36.602523,26.8443108 37.0699754,26.7208571 37.5637902,26.7208571 C38.3745983,26.7208571 39.1095337,27.048781 39.6399989,27.5811752 C40.174322,28.1122834 40.5041749,28.8465758 40.5041749,29.6605987 C40.5041749,30.4714067 40.1756079,31.2056992 39.6399989,31.7368073 C39.1095337,32.2679155 38.3745983,32.5977684 37.5637902,32.5977684 C37.0699754,32.5977684 36.602523,32.4749577 36.1910106,32.2595567 L30.869641,37.5802833 L30.869641,42.5351497 L38.282651,42.5351497 C38.5282724,42.5351497 38.7713219,42.5627982 39.0008687,42.6084503 C39.2683517,42.2303733 39.5904888,41.8838027 39.9653508,41.5674526 C43.366115,38.7190152 45.529127,34.4405723 45.529127,29.6605987 C45.527841,21.0831373 38.5758535,14.1324358 29.9996781,14.1324358 L29.9996781,14.1324358 Z M29.1490048,22.9484458 L29.1490048,22.9452309 C28.9310319,22.7304729 28.7992193,22.4289114 28.7992193,22.0977726 C28.7992193,21.7659907 28.9342468,21.4644293 29.1490048,21.2470993 C29.3669778,21.0291263 29.6678962,20.8934558 29.9996781,20.8934558 C30.33146,20.8934558 30.6323784,21.0291263 30.8503514,21.2470993 C31.0683243,21.4644293 31.2039948,21.7659907 31.2039948,22.0977726 C31.2039948,22.4289114 31.0683243,22.7304729 30.8503514,22.9484458 C30.6323784,23.1664188 30.33146,23.2982314 29.9996781,23.2982314 C29.6678962,23.2982314 29.3669778,23.1664188 29.1522198,22.9484458 L29.1490048,22.9484458 Z" id="Fill-16" fill="#3A72EB"></path>
        </g>
    </g>
</svg>