<?xml version="1.0" encoding="UTF-8"?>
<svg width="60px" height="61px" viewBox="0 0 60 61" version="1.1" xmlns="http://www.w3.org/2000/svg" xmlns:xlink="http://www.w3.org/1999/xlink">
    <title>4</title>
    <g id="Page-1" stroke="none" stroke-width="1" fill="none" fill-rule="evenodd">
        <g id="4" transform="translate(0, 0.3698)">
            <rect id="Rectangle" x="0" y="0" width="60" height="60"></rect>
            <path d="M10.4071915,42.0227084 C11.4995004,40.6528598 12.0465186,39.1672736 12.0465186,37.5647983 C12.0465186,36.097638 11.5933572,34.9080175 10.6876103,33.9947851 C9.78186338,33.0815527 8.43792614,32.6243606 6.65637437,32.6243606 C5.62337376,32.6243606 4.68422996,32.8264695 3.83836714,33.2306871 C2.99250433,33.6354805 2.31132277,34.2636877 1.79482246,35.117036 C1.27832216,35.9703843 1.00538889,37.0339028 0.975446844,38.305864 L4.68077511,38.305864 C4.68077511,37.5279466 4.8414257,36.925075 5.16387851,36.4984008 C5.4851797,36.0717267 5.93085555,35.8581017 6.49975443,35.8581017 C7.06807751,35.8581017 7.49475167,36.0308442 7.77977692,36.374602 C8.06422637,36.7195113 8.20645109,37.1985841 8.20645109,37.812396 C8.20645109,38.6202555 7.91451613,39.4517231 7.33064623,40.3050714 C6.74677632,41.1584197 6.03104624,41.9743405 5.18633505,42.7528337 C4.33989642,43.5313269 3.18309697,44.5269 1.7165125,45.7395528 C1.76084976,45.7096108 1.5287989,45.8967486 1.02035991,46.3009662 L1.02035991,49.1523703 L12.2929646,49.1523703 L12.2929646,46.030912 L6.23027602,46.030912 C7.92200165,44.728433 9.31430681,43.392557 10.4071915,42.0227084 M21.8823081,43.134422 L18.1090344,43.134422 L21.8823081,37.4304622 L21.8823081,43.134422 Z M25.4523214,33.2086336 L21.163699,33.2086336 L14.067434,43.3589874 L14.067434,46.4579892 L21.6122539,46.4579892 L21.6122539,49.3773388 L25.4523214,49.3773388 L25.4523214,46.4579892 L27.2937572,46.4579892 L27.2937572,43.134422 L25.4523214,43.134422 L25.4523214,33.2086336 Z M28.7987481,36.2851789 L35.7827305,36.2851789 L30.0793464,49.3773388 L34.0086642,49.3773388 L39.6452545,35.8585047 L39.6452545,33.0065248 L28.7987481,33.0065248 L28.7987481,36.2851789 Z M55.2973442,42.0340518 C56.4051999,42.0340518 57.3028855,42.3634144 57.9915525,43.0221394 C58.6807954,43.6808644 59.0245532,44.6165534 59.0245532,45.8292062 C59.0245532,47.0418591 58.6807954,47.9775481 57.9915525,48.6362731 C57.3028855,49.2949981 56.4051999,49.6243606 55.2973442,49.6243606 C54.1889126,49.6243606 53.2906512,49.2949981 52.60256,48.6362731 C51.9138929,47.9775481 51.5695594,47.0418591 51.5695594,45.8292062 C51.5695594,44.6165534 51.9138929,43.6808644 52.60256,43.0221394 C53.2906512,42.3634144 54.1889126,42.0340518 55.2973442,42.0340518 Z M56.1285814,33.567823 L47.4822397,49.3772236 L43.7769114,49.3772236 L52.4226774,33.567823 L56.1285814,33.567823 Z M55.2748876,44.2797053 C54.9299783,44.2797053 54.6645305,44.406959 54.4773927,44.6614664 C54.2902549,44.9159738 54.196974,45.3052204 54.196974,45.8292062 C54.196974,46.8472358 54.5562785,47.3562506 55.2748876,47.3562506 C55.6186454,47.3562506 55.8881238,47.2289969 56.0833229,46.9744895 C56.2773704,46.7199821 56.3752578,46.338221 56.3752578,45.8292062 C56.3752578,45.3201914 56.2773704,44.9349755 56.0833229,44.6724068 C55.8881238,44.4109897 55.6186454,44.2797053 55.2748876,44.2797053 Z M44.6300294,33.3208587 C45.7378852,33.3208587 46.6367224,33.6502212 47.3253894,34.3089462 C48.0134807,34.9682471 48.35839,35.9033602 48.35839,37.1160131 C48.35839,38.328666 48.0134807,39.264355 47.3253894,39.92308 C46.6367224,40.5823808 45.7378852,40.9111675 44.6300294,40.9111675 C43.5221737,40.9111675 42.6204575,40.5823808 41.9243049,39.92308 C41.2281523,39.264355 40.8797881,38.328666 40.8797881,37.1160131 C40.8797881,35.9033602 41.2281523,34.9682471 41.9243049,34.3089462 C42.6204575,33.6502212 43.5221737,33.3208587 44.6300294,33.3208587 Z M44.6075729,35.5665122 C43.8889638,35.5665122 43.5296592,36.0830125 43.5296592,37.1160131 C43.5296592,38.1346185 43.8889638,38.6430575 44.6075729,38.6430575 C44.9524822,38.6430575 45.2213849,38.5158038 45.4160082,38.2612964 C45.6106315,38.006789 45.7079431,37.6250279 45.7079431,37.1160131 C45.7079431,36.0830125 45.341153,35.5665122 44.6075729,35.5665122 Z M36.7048214,13.5205428 L31.382144,18.8432202 L26.7736775,14.2347537 L16.8915335,24.1173926 L20.1497802,27.3756394 L26.7736775,20.7512471 L31.382144,25.3597137 L39.9630681,16.7787896 L41.5211663,18.3383726 L43.1084665,10.3756394 L35.1452383,11.9629396 L36.7048214,13.5205428 Z" id="Combined-Shape" fill="#3A72EB"></path>
        </g>
    </g>
</svg>